<svg xmlns="http://www.w3.org/2000/svg" viewBox="0 0 120 120">
    <path
        d="M 30 10 l 0 40 
        M 60 90
        c 10 10 20 20 30 20
        c 20 0 20 -20 20 -20
        c 0 -20 -20 -20 -20 -20
        c -20 0 -40 40 -60 40
        c -20 0 -20 -20 -20 -20
        c 0 -20 20 -20 20 -20
        c 10 0 20 10 20 10
        


  
        M 80 10
        a 20 20 0 0 1 0 40
        a 20 20 0 0 1 0 -40
        "
        stroke="#007acc"
        stroke-width="15"
        stroke-linecap="round"
        fill="none"
    />
</svg>